<?xml version="1.0" encoding="iso-8859-1"?>
<!-- Generator: Adobe Illustrator 19.0.0, SVG Export Plug-In . SVG Version: 6.00 Build 0)  -->
<svg version="1.1" id="Layer_1" xmlns="http://www.w3.org/2000/svg" xmlns:xlink="http://www.w3.org/1999/xlink" x="0px" y="0px"
	 viewBox="0 0 512 512" style="enable-background:new 0 0 512 512;" xml:space="preserve">
<g>
	<path style="fill:#3E3D43;" d="M64.69,512c-23.575,0-42.755-19.181-42.755-42.756V311.531h156.599v157.713
		c0,23.575-19.181,42.756-42.755,42.756H64.69z"/>
	<path style="fill:#3E3D43;" d="M220.733,512c-23.575,0-42.755-19.181-42.755-42.756V311.531h156.599v157.713
		c0,23.575-19.181,42.756-42.755,42.756H220.733z"/>
	<path style="fill:#3E3D43;" d="M376.221,512c-23.575,0-42.755-19.181-42.755-42.756V311.531h156.599v157.713
		c0,23.575-19.181,42.756-42.755,42.756H376.221z"/>
</g>
<path style="fill:#2E2D30;" d="M462.802,345.406v123.87c0,23.162-18.518,42.068-41.523,42.725h26.031
	c23.575,0,42.755-19.181,42.755-42.756V345.406H462.802z"/>
<path style="fill:#FFA733;" d="M21.935,345.406V42.756C21.935,19.181,41.115,0,64.69,0h71.089c23.575,0,42.755,19.181,42.755,42.756
	v302.65H21.935z"/>
<path style="fill:#FFB656;" d="M177.978,345.406V42.756C177.978,19.181,197.159,0,220.733,0h71.089
	c23.575,0,42.755,19.181,42.755,42.756v302.65H177.978z"/>
<path style="fill:#FEC377;" d="M333.466,345.406V42.756C333.466,19.181,352.647,0,376.221,0h71.089
	c23.575,0,42.755,19.181,42.755,42.756v302.65H333.466z"/>
<path style="fill:#FFA733;" d="M447.31,0h-27.257c23.575,0,42.755,19.181,42.755,42.756v302.65h27.257V42.756
	C490.065,19.181,470.885,0,447.31,0z"/>
<path style="fill:#2E2D30;" d="M307.32,345.406l-0.042,123.376c0,23.162-18.518,42.068-41.523,42.725h26.031
	c23.575,0,42.755-19.181,42.755-42.756l0.037-123.345H307.32z"/>
<path style="fill:#FFA733;" d="M291.822,0h-27.257c23.575,0,42.755,19.181,42.755,42.756v302.65h27.257V42.756
	C334.577,19.181,315.396,0,291.822,0z"/>
<g>
	<path style="fill:#ECE5DD;" d="M124.275,55.531H76.194c-11.546,0-20.94,9.394-20.94,20.939v203.572
		c0,11.546,9.394,20.939,20.94,20.939h48.082c11.546,0,20.94-9.394,20.94-20.939V76.47
		C145.215,64.925,135.821,55.531,124.275,55.531z"/>
	<path style="fill:#ECE5DD;" d="M279.208,55.531h-48.082c-11.546,0-20.94,9.394-20.94,20.939v203.572
		c0,11.546,9.394,20.939,20.94,20.939h48.082c11.546,0,20.94-9.394,20.94-20.939V76.47
		C300.148,64.925,290.754,55.531,279.208,55.531z"/>
	<path style="fill:#ECE5DD;" d="M434.696,55.531h-48.082c-11.546,0-20.94,9.394-20.94,20.939v203.572
		c0,11.546,9.394,20.939,20.94,20.939h48.082c11.546,0,20.94-9.394,20.94-20.939V76.47
		C455.636,64.925,446.242,55.531,434.696,55.531z"/>
	<path style="fill:#ECE5DD;" d="M100.234,456.469c-18.677,0-33.874-15.196-33.874-33.874s15.197-33.874,33.874-33.874
		s33.874,15.196,33.874,33.874S118.912,456.469,100.234,456.469z"/>
	<path style="fill:#ECE5DD;" d="M256.278,456.469c-18.677,0-33.874-15.196-33.874-33.874s15.197-33.874,33.874-33.874
		s33.874,15.196,33.874,33.874S274.955,456.469,256.278,456.469z"/>
	<path style="fill:#ECE5DD;" d="M410.655,456.469c-18.677,0-33.874-15.196-33.874-33.874s15.197-33.874,33.874-33.874
		c18.677,0,33.874,15.196,33.874,33.874S429.333,456.469,410.655,456.469z"/>
</g>
<g>
	<path style="fill:#957755;" d="M55.254,101.067V76.47c0-11.545,9.394-20.939,20.94-20.939h48.082
		c11.546,0,20.94,9.394,20.94,20.939v24.597H55.254z"/>
	<path style="fill:#957755;" d="M210.187,101.067V76.47c0-11.546,9.394-20.939,20.94-20.939h48.082
		c11.546,0,20.94,9.394,20.94,20.939v24.597H210.187z"/>
	<path style="fill:#957755;" d="M365.675,101.067V76.47c0-11.546,9.394-20.939,20.94-20.939h48.082
		c11.546,0,20.94,9.394,20.94,20.939v24.597H365.675z"/>
</g>
<path style="fill:#2E2D30;" d="M152.964,345.406l-0.042,123.376c0,23.162-18.518,42.068-41.523,42.725h26.031
	c23.575,0,42.755-19.181,42.755-42.756l0.037-123.345H152.964z"/>
<path style="fill:#FF9911;" d="M137.466,0h-27.257c23.575,0,42.755,19.181,42.755,42.756v302.65h27.257V42.756
	C180.221,19.181,161.041,0,137.466,0z"/>
<g>
</g>
<g>
</g>
<g>
</g>
<g>
</g>
<g>
</g>
<g>
</g>
<g>
</g>
<g>
</g>
<g>
</g>
<g>
</g>
<g>
</g>
<g>
</g>
<g>
</g>
<g>
</g>
<g>
</g>
</svg>
